{"title":"FernGully The Last Rainforest (1992)1080p BDRip DD5.1-DGrea8","uid":9141506,"size":1463485998,"categoryP":"video","categoryS":"hd___movies","magnet":"?xt=urn:btih:ce62b293f36bb7bff0af32397215c52041640556&amp;dn=FernGully+The+Last+Rainforest+%281992%291080p+BDRip+DD5.1-DGrea8&amp;tr=udp%3A%2F%2Ftracker.openbittorrent.com%3A80&amp;tr=udp%3A%2F%2Fopen.demonii.com%3A1337&amp;tr=udp%3A%2F%2Ftracker.coppersurfer.tk%3A6969&amp;tr=udp%3A%2F%2Fexodus.desync.com%3A6969","seeders":1,"leechers":0,"uploader":"DGrea8","files":-1,"time":1383518140,"description":"     FernGully The Last Rainforest (1992)1080p BDRip[English]DD5.1-DGrea8\n\n\nStoryline:-\n\n\nThe fairy people of FernGully have never seen humans before, but when Chrysta sees one, Zak, she accidentally shrinks him down to her size. But there is trouble in FernGully, for Zak is part of a logging team who is there to cut down the forest.\n\n\nCast Info:. \n\nTim Curry\t ...\tHexxus (voice)\nSamantha Mathis\t ...\tCrysta (voice)\nChristian Slater\t ...\tPips (voice)\nJonathan Ward\t ...\tZak Young (voice)\nRobin Williams\t ...\tBatty Koda (voice)\nGrace Zabriskie\t ...\tMagi Lune (voice)\nGeoffrey Blake\t ...\tRalph (voice)\nRobert Pastorelli\t ...\tTony (voice)\nCheech Marin\t ...\tStump (voice)\nTommy Chong\t ...\tRoot (voice)\nTone Loc\t ...\tGoanna (voice)\nTownsend Coleman\t ...\tKnotty (voice)\nBrian Cummings\t ...\tOck (voice)\nKathleen Freeman\t ...\tEdler (voice)\nJanet Gilmore\t ...\tFairy (voice)\n\n\nGeneral Info:. \n\n\nDirector: Bill Kroyer\nWriters: Jim Cox (screenplay), Diana Young (original stories)\nStars: Samantha Mathis, Christian Slater, Robin Williams\nRelease Date: 10 April 1992 (USA)\nGenres: Animation | Adventure | Family\n\n\nVideo Info:. \n\nVideo\nID : 1\nFormat : AVC\nFormat/Info : Advanced Video Codec\nFormat profile : &lt;a class=&quot;__cf_email__&quot; href=&quot;/cdn-cgi/l/email-protection&quot; data-cfemail=&quot;0b466a62654b473f253b&quot;&gt;[email&amp;#160;protected]&lt;/a&gt;&lt;script cf-hash='f9e31' type=&quot;text/javascript&quot;&gt;\n/* &lt;![CDATA[ */!function(){try{var t=&quot;currentScript&quot;in document?document.currentScript:function(){for(var t=document.getElementsByTagName(&quot;script&quot;),e=t.length;e--;)if(t[e].getAttribute(&quot;cf-hash&quot;))return t[e]}();if(t&amp;&amp;t.previousSibling){var e,r,n,i,c=t.previousSibling,a=c.getAttribute(&quot;data-cfemail&quot;);if(a){for(e=&quot;&quot;,r=parseInt(a.substr(0,2),16),n=2;a.length-n;n+=2)i=parseInt(a.substr(n,2),16)^r,e+=String.fromCharCode(i);e=document.createTextNode(e),c.parentNode.replaceChild(e,c)}}}catch(u){}}();/* ]]&gt; */&lt;/script&gt;\nFormat settings, CABAC : Yes\nFormat settings, ReFrames : 4 frames\nMuxing mode : Header stripping\nCodec ID : V_MPEG4/ISO/AVC\nDuration : 1h 15mn\nBit rate : 2 100 Kbps\nWidth : 1 920 pixels\nHeight : 1 040 pixels\nDisplay aspect ratio : 1.85:1\nFrame rate mode : Constant\nFrame rate : 23.976 fps\nColor space : YUV\nChroma subsampling : 4:2:0\nBit depth : 8 bits\nScan type : Progressive\nBits/(Pixel*Frame) : 0.044\nStream size : 1.08 GiB (82%)\n\n\n\nAudio Info:. \n\nAudio\nID : 2\nFormat : AC-3\nFormat/Info : Audio Coding 3\nMode extension : CM (complete main)\nFormat settings, Endianness : Big\nMuxing mode : Header stripping\nCodec ID : A_AC3\nDuration : 1h 15mn\nBit rate mode : Constant\nBit rate : 384 Kbps\nChannel(s) : 6 channels\nChannel positions : Front: L C R, Side: L R, LFE\nSampling rate : 48.0 KHz\nBit depth : 16 bits\nCompression mode : Lossy\nStream size : 208 MiB (16%)\nLanguage : English\nDefault : Yes\n\nSubtitle : English\n\n\n\nScreen Shoots:-\n     &lt;a href=&quot;\nhttp://img196.imageshack.us/img196/2104/8gum.jpg&quot; rel=&quot;nofollow&quot; target=&quot;_NEW&quot;&gt;\nhttp://img196.imageshack.us/img196/2104/8gum.jpg&lt;/a&gt;\n &lt;a href=&quot;\nhttp://img824.imageshack.us/img824/4069/a3nd.jpg&quot; rel=&quot;nofollow&quot; target=&quot;_NEW&quot;&gt;\nhttp://img824.imageshack.us/img824/4069/a3nd.jpg&lt;/a&gt;\n &lt;a href=&quot;\nhttp://img46.imageshack.us/img46/7395/xait.jpg&quot; rel=&quot;nofollow&quot; target=&quot;_NEW&quot;&gt;\nhttp://img46.imageshack.us/img46/7395/xait.jpg&lt;/a&gt;\n &lt;a href=&quot;\nhttp://img12.imageshack.us/img12/5176/jio7.jpg&quot; rel=&quot;nofollow&quot; target=&quot;_NEW&quot;&gt;\nhttp://img12.imageshack.us/img12/5176/jio7.jpg&lt;/a&gt;\n\n\nNote:-- Check The Torrent\n\n\nCheck The Sample Video In This Torrent\t","torrent":{"xt":"urn:btih:ce62b293f36bb7bff0af32397215c52041640556","amp;dn":"FernGully+The+Last+Rainforest+%281992%291080p+BDRip+DD5.1-DGrea8","amp;tr":["udp%3A%2F%2Ftracker.openbittorrent.com%3A80","udp%3A%2F%2Fopen.demonii.com%3A1337","udp%3A%2F%2Ftracker.coppersurfer.tk%3A6969","udp%3A%2F%2Fexodus.desync.com%3A6969"],"infoHash":"ce62b293f36bb7bff0af32397215c52041640556","infoHashBuffer":{"type":"Buffer","data":[206,98,178,147,243,107,183,191,240,175,50,57,114,21,197,32,65,100,5,86]},"announce":[],"urlList":[]}}